<?xml version="1.0" encoding="UTF-8"?>
<svg version="1.1" xmlns="http://www.w3.org/2000/svg" width="160" height="160">
<path d="M0 0 C52.8 0 105.6 0 160 0 C160 52.8 160 105.6 160 160 C107.2 160 54.4 160 0 160 C0 107.2 0 54.4 0 0 Z " fill="#F6F6F6" transform="translate(0,0)"/>
<path d="M0 0 C1.51400391 0.01740234 1.51400391 0.01740234 3.05859375 0.03515625 C4.07050781 0.04417969 5.08242187 0.05320312 6.125 0.0625 C6.90746094 0.07410156 7.68992187 0.08570313 8.49609375 0.09765625 C11.00095159 6.59481721 12.10023664 12.67332059 12.62109375 19.59765625 C12.76575041 21.37921728 12.91398572 23.16049265 13.06640625 24.94140625 C13.12586426 25.71677734 13.18532227 26.49214844 13.24658203 27.29101562 C13.31340447 29.11620669 13.31340447 29.11620669 14.49609375 30.09765625 C14.89603061 32.78628289 15.24743918 35.46117842 15.55859375 38.16015625 C15.69491211 39.29807617 15.69491211 39.29807617 15.83398438 40.45898438 C16.05853115 42.33808635 16.27780353 44.2178172 16.49609375 46.09765625 C17.38683594 45.91460937 18.27757813 45.7315625 19.1953125 45.54296875 C22.32880181 45.12022581 24.28216438 45.21991573 27.30859375 45.97265625 C28.07816406 46.15570313 28.84773438 46.33875 29.640625 46.52734375 C31.49609375 47.09765625 31.49609375 47.09765625 32.49609375 48.09765625 C32.53673207 49.7638274 32.53881475 51.4315372 32.49609375 53.09765625 C33.48609375 53.09765625 34.47609375 53.09765625 35.49609375 53.09765625 C35.49609375 53.75765625 35.49609375 54.41765625 35.49609375 55.09765625 C36.15609375 55.09765625 36.81609375 55.09765625 37.49609375 55.09765625 C38.8515976 57.80866395 38.66526582 60.01104794 38.68359375 63.03515625 C38.69777344 64.09605469 38.71195312 65.15695313 38.7265625 66.25 C38.49609375 69.09765625 38.49609375 69.09765625 36.49609375 72.09765625 C35.83609375 72.09765625 35.17609375 72.09765625 34.49609375 72.09765625 C33.50609375 75.72765625 32.51609375 79.35765625 31.49609375 83.09765625 C30.83609375 83.09765625 30.17609375 83.09765625 29.49609375 83.09765625 C29.40328125 83.96390625 29.40328125 83.96390625 29.30859375 84.84765625 C27.9764143 88.53676856 24.91791361 90.38674632 21.49609375 92.09765625 C20.41692149 95.33517303 20.38183774 97.67517396 20.3984375 101.078125 C20.40166016 102.24150391 20.40488281 103.40488281 20.40820312 104.60351562 C20.41658203 105.81845703 20.42496094 107.03339844 20.43359375 108.28515625 C20.43810547 109.51169922 20.44261719 110.73824219 20.44726562 112.00195312 C20.4590631 115.03390293 20.47552454 118.06575531 20.49609375 121.09765625 C17.11328125 121.24609375 17.11328125 121.24609375 13.49609375 121.09765625 C11.62109375 118.72265625 11.62109375 118.72265625 10.49609375 116.09765625 C10.16609375 115.43765625 9.83609375 114.77765625 9.49609375 114.09765625 C9.12683449 111.2849392 8.79418886 108.48041549 8.49609375 105.66015625 C7.91893188 99.79816607 7.91893188 99.79816607 6.49609375 94.09765625 C-1.49457033 94.30722677 -1.49457033 94.30722677 -8.2578125 97.7890625 C-9.48081856 99.89912927 -9.48081856 99.89912927 -10.50390625 103.09765625 C-11.16390625 103.09765625 -11.82390625 103.09765625 -12.50390625 103.09765625 C-12.62765625 103.80535156 -12.75140625 104.51304688 -12.87890625 105.2421875 C-13.5291579 108.21302474 -14.44637314 110.93526005 -15.50390625 113.78515625 C-15.85453125 114.73777344 -16.20515625 115.69039063 -16.56640625 116.671875 C-17.50390625 119.09765625 -17.50390625 119.09765625 -18.50390625 121.09765625 C-19.16390625 121.09765625 -19.82390625 121.09765625 -20.50390625 121.09765625 C-20.66246094 121.68933594 -20.82101563 122.28101563 -20.984375 122.890625 C-22.56061147 128.22892862 -24.11839212 131.44306114 -28.50390625 135.09765625 C-29.21804687 135.79246094 -29.9321875 136.48726562 -30.66796875 137.203125 C-34.28901012 139.62214024 -37.29592222 139.69082195 -41.50390625 139.59765625 C-42.55191406 139.62085938 -42.55191406 139.62085938 -43.62109375 139.64453125 C-47.30053035 139.61676192 -49.37825632 139.17749631 -52.50390625 137.19140625 C-54.50390625 135.09765625 -54.50390625 135.09765625 -54.50390625 133.09765625 C-53.84390625 133.09765625 -53.18390625 133.09765625 -52.50390625 133.09765625 C-52.24351563 132.21980469 -51.983125 131.34195313 -51.71484375 130.4375 C-50.51320734 127.12330927 -49.07475894 124.58743246 -47.12890625 121.66015625 C-43.94686373 116.78847544 -41.03545121 111.87124682 -38.22265625 106.77734375 C-37.77921875 105.97554688 -37.33578125 105.17375 -36.87890625 104.34765625 C-36.47414063 103.6103125 -36.069375 102.87296875 -35.65234375 102.11328125 C-34.67512699 100.39816611 -33.5988699 98.74010173 -32.50390625 97.09765625 C-32.33691393 93.97243792 -32.33691393 93.97243792 -32.50390625 91.09765625 C-33.3546875 91.27039063 -34.20546875 91.443125 -35.08203125 91.62109375 C-38.61964261 92.11377478 -41.70066897 92.02558201 -45.25390625 91.72265625 C-46.383125 91.63242188 -47.51234375 91.5421875 -48.67578125 91.44921875 C-51.50390625 91.09765625 -51.50390625 91.09765625 -53.50390625 90.09765625 C-54.09746239 87.44905198 -54.24599894 84.80568303 -54.50390625 82.09765625 C-53.01890625 81.10765625 -53.01890625 81.10765625 -51.50390625 80.09765625 C-50.76784126 76.52996073 -50.76784126 76.52996073 -50.50390625 73.09765625 C-49.51390625 73.42765625 -48.52390625 73.75765625 -47.50390625 74.09765625 C-47.38015625 73.19015625 -47.25640625 72.28265625 -47.12890625 71.34765625 C-46.58280948 68.50795302 -45.93126822 66.57175034 -44.50390625 64.09765625 C-45.20515625 64.13890625 -45.90640625 64.18015625 -46.62890625 64.22265625 C-49.88762253 64.08097293 -52.45990095 63.23030939 -55.50390625 62.09765625 C-55.50390625 61.43765625 -55.50390625 60.77765625 -55.50390625 60.09765625 C-56.49390625 60.09765625 -57.48390625 60.09765625 -58.50390625 60.09765625 C-62.50390625 53.91583807 -62.50390625 53.91583807 -62.50390625 50.28515625 C-61.23053693 47.49966087 -60.32842708 47.18396381 -57.50390625 46.09765625 C-54.93847656 45.87060547 -54.93847656 45.87060547 -52.08203125 45.90234375 C-51.05722656 45.90878906 -50.03242187 45.91523437 -48.9765625 45.921875 C-47.91308594 45.93863281 -46.84960938 45.95539062 -45.75390625 45.97265625 C-44.13548828 45.98619141 -44.13548828 45.98619141 -42.484375 46 C-39.82399347 46.0235432 -37.16406289 46.05642826 -34.50390625 46.09765625 C-34.17390625 45.10765625 -33.84390625 44.11765625 -33.50390625 43.09765625 C-32.84390625 43.09765625 -32.18390625 43.09765625 -31.50390625 43.09765625 C-31.17390625 42.10765625 -30.84390625 41.11765625 -30.50390625 40.09765625 C-29.84390625 40.09765625 -29.18390625 40.09765625 -28.50390625 40.09765625 C-28.50390625 39.10765625 -28.50390625 38.11765625 -28.50390625 37.09765625 C-27.84390625 37.09765625 -27.18390625 37.09765625 -26.50390625 37.09765625 C-26.35953125 36.47890625 -26.21515625 35.86015625 -26.06640625 35.22265625 C-25.50390625 33.09765625 -25.50390625 33.09765625 -24.50390625 31.09765625 C-23.35921875 30.78828125 -23.35921875 30.78828125 -22.19140625 30.47265625 C-18.19899361 28.43002653 -17.17682832 25.11640758 -15.50390625 21.09765625 C-14.84390625 21.09765625 -14.18390625 21.09765625 -13.50390625 21.09765625 C-13.25769531 20.25847656 -13.01148438 19.41929688 -12.7578125 18.5546875 C-11.35150745 14.67749132 -9.52437709 11.32881505 -7.44140625 7.78515625 C-6.89516602 6.83672852 -6.89516602 6.83672852 -6.33789062 5.86914062 C-3.0025731 0.11710503 -3.0025731 0.11710503 0 0 Z " fill="#C29795" transform="translate(90.50390625,12.90234375)"/>
<path d="M0 0 C2.37625177 -0.10883596 4.74743976 -0.18766696 7.125 -0.25 C7.79015625 -0.28351562 8.4553125 -0.31703125 9.140625 -0.3515625 C14.28884392 -0.45250797 17.02511172 0.81537141 21 4 C23.39717862 6.39717862 23.3468288 7.07883503 23.4375 10.375 C23.27699921 18.89388806 19.2834149 27.39573137 14 34 C11.02747576 36.74958492 8.91797968 38.16161876 5 39 C5.06058594 39.66531738 5.12117188 40.33063477 5.18359375 41.01611328 C5.45849317 44.05216588 5.7292823 47.08857179 6 50.125 C6.09539062 51.17171875 6.19078125 52.2184375 6.2890625 53.296875 C6.7245607 58.2117833 7.13675514 63.05972054 7 68 C5.02 68 3.04 68 1 68 C-0.88284826 58.72597081 -1.9644231 49.39730952 -3 40 C-8.43781707 39.34557288 -13.81395476 38.93121474 -19 41 C-23.18720809 44.62609217 -25.24459774 50.20732586 -27.56591797 55.11621094 C-30.14926592 60.31105364 -33.14624332 65.27761838 -36.08151245 70.27908325 C-37.75974999 73.14734646 -39.41409676 76.02912211 -41.0703125 78.91015625 C-42.03710938 80.58980469 -43.00390625 82.26945312 -44 84 C-50.93 84 -57.86 84 -65 84 C-61.20421939 76.17604405 -57.37706965 68.76681596 -52.60546875 61.48828125 C-50.76582211 58.63705277 -49.14127669 55.71098458 -47.5234375 52.73046875 C-44.92989482 48.08204226 -42.19497634 43.51564173 -39.47729492 38.93896484 C-39.05810791 38.23078613 -38.6389209 37.52260742 -38.20703125 36.79296875 C-37.8303833 36.1589917 -37.45373535 35.52501465 -37.06567383 34.87182617 C-35.96970115 32.94678093 -34.97292764 30.98966595 -34 29 C-33.34 29 -32.68 29 -32 29 C-31.81630859 27.91138672 -31.81630859 27.91138672 -31.62890625 26.80078125 C-30.53498068 21.92907543 -29.02752061 18.11550354 -25 15 C-19.56399469 14.20579587 -14.45175036 14.47554421 -9 15 C-10.23923914 18.18741239 -11.57509992 21.26436318 -13.125 24.3125 C-13.47820312 25.00988281 -13.83140625 25.70726563 -14.1953125 26.42578125 C-14.46085937 26.94527344 -14.72640625 27.46476562 -15 28 C-12.58293696 27.69035138 -10.16638113 27.37738885 -7.75 27.0625 C-7.06808594 26.97548828 -6.38617188 26.88847656 -5.68359375 26.79882812 C-0.75881835 26.25789091 -0.75881835 26.25789091 4 25 C6.66280693 20.91068936 7.34568576 17.83960066 7 13 C4.69 12.01 2.38 11.02 0 10 C0 6.7 0 3.4 0 0 Z " fill="#050404" transform="translate(102,63)"/>
<path d="M0 0 C2.05078125 0.03255208 4.1015625 0.06510417 6.15234375 0.09765625 C7.66523392 9.65970966 8.46529177 19.10062707 8.81030273 28.77416992 C8.991001 33.62083764 9.43332281 38.29436059 10.15234375 43.09765625 C10.21290526 44.74250691 10.2401633 46.38938582 10.21484375 48.03515625 C10.20582031 48.80730469 10.19679688 49.57945313 10.1875 50.375 C10.17589844 50.94347656 10.16429688 51.51195312 10.15234375 52.09765625 C8.83234375 52.09765625 7.51234375 52.09765625 6.15234375 52.09765625 C4.36030863 43.11493931 2.71525828 34.25957543 2.15234375 25.09765625 C1.49234375 25.09765625 0.83234375 25.09765625 0.15234375 25.09765625 C-0.08484375 25.75636719 -0.32203125 26.41507813 -0.56640625 27.09375 C-2.21377857 30.9560345 -4.25994878 34.52167567 -6.34765625 38.16015625 C-7.15059392 39.56722115 -7.95270385 40.97475879 -8.75390625 42.3828125 C-9.10775391 43.000354 -9.46160156 43.61789551 -9.82617188 44.25415039 C-10.88896105 46.17220036 -11.86699968 48.13634312 -12.84765625 50.09765625 C-6.90765625 50.09765625 -0.96765625 50.09765625 5.15234375 50.09765625 C5.15234375 53.06765625 5.15234375 56.03765625 5.15234375 59.09765625 C-2.76765625 59.09765625 -10.68765625 59.09765625 -18.84765625 59.09765625 C-19.50765625 60.41765625 -20.16765625 61.73765625 -20.84765625 63.09765625 C-22.10873661 65.33308126 -23.37858709 67.56157387 -24.66015625 69.78515625 C-27.76796096 75.19834068 -30.83225942 80.63224949 -33.84765625 86.09765625 C-39.78765625 86.09765625 -45.72765625 86.09765625 -51.84765625 86.09765625 C-48.68132399 78.1818256 -44.99449827 70.9840221 -40.08203125 64.0078125 C-38.68146589 62.01459024 -38.68146589 62.01459024 -37.84765625 59.09765625 C-38.76546875 59.19046875 -39.68328125 59.28328125 -40.62890625 59.37890625 C-50.50869568 59.96007033 -50.50869568 59.96007033 -54.55859375 57.3515625 C-59.84765625 51.99567069 -59.84765625 51.99567069 -59.84765625 50.09765625 C-59.00581787 50.13544189 -58.16397949 50.17322754 -57.29663086 50.2121582 C-42.58250166 51.41474155 -42.58250166 51.41474155 -28.88378906 47.91943359 C-25.89385767 44.57164688 -24.98922395 40.33157189 -23.84765625 36.09765625 C-22.265625 33.4453125 -22.265625 33.4453125 -20.59765625 31.16015625 C-18.35107363 27.90441353 -16.50452279 24.68753376 -14.84765625 21.09765625 C-14.18765625 21.09765625 -13.52765625 21.09765625 -12.84765625 21.09765625 C-12.60144531 20.25847656 -12.35523438 19.41929688 -12.1015625 18.5546875 C-10.69525745 14.67749132 -8.86812709 11.32881505 -6.78515625 7.78515625 C-6.23891602 6.83672852 -6.23891602 6.83672852 -5.68164062 5.86914062 C-2.35045523 0.12423125 -2.35045523 0.12423125 0 0 Z " fill="#F60303" transform="translate(89.84765625,12.90234375)"/>
<path d="M0 0 C0.99 0 1.98 0 3 0 C2.71898437 0.67546875 2.43796875 1.3509375 2.1484375 2.046875 C0.91907726 5.0567198 0.91907726 5.0567198 0.0390625 8.515625 C-2.93935245 16.38127333 -2.93935245 16.38127333 -7 19 C-16.07739715 21.15207944 -25.74734658 20.49369674 -35 20 C-31.69250579 23.9027287 -29.33984024 26.67726476 -24.25390625 27.90234375 C-22.42666016 27.91974609 -22.42666016 27.91974609 -20.5625 27.9375 C-19.32628906 27.96714844 -18.09007812 27.99679688 -16.81640625 28.02734375 C-15.88699219 28.01832031 -14.95757812 28.00929688 -14 28 C-14.66863596 31.67315597 -16.26924901 34.38235322 -18.1875 37.5625 C-21.60491884 43.30291637 -24.82817812 49.1205253 -28 55 C-22.06 55 -16.12 55 -10 55 C-9.34 53.02 -8.68 51.04 -8 49 C-7.01025391 47.03710938 -7.01025391 47.03710938 -5.9765625 45.34375 C-5.595 44.71339844 -5.2134375 44.08304688 -4.8203125 43.43359375 C-4.42585938 42.79550781 -4.03140625 42.15742187 -3.625 41.5 C-3.23828125 40.86191406 -2.8515625 40.22382812 -2.453125 39.56640625 C-1.68248251 38.30182847 -0.89546522 37.04707313 -0.09179688 35.80322266 C1.18447139 33.78710313 1.18447139 33.78710313 2.4921875 30.5546875 C5.55850438 27.43105629 6.59187767 27.57406926 10.859375 27.4140625 C13.15698053 27.45390537 15.45420832 27.52540503 17.75 27.625 C19.51150391 27.66560547 19.51150391 27.66560547 21.30859375 27.70703125 C24.2075816 27.77773827 27.1028647 27.87638044 30 28 C30.33430219 29.91083667 30.66417496 31.82244861 30.9921875 33.734375 C31.1763623 34.79881836 31.36053711 35.86326172 31.55029297 36.95996094 C32.05783885 40.39099312 32.15709959 43.54380907 32 47 C28.37 47 24.74 47 21 47 C22.41292095 42.1725201 24.42974154 38.2837641 27 34 C18.91594945 33.61572589 18.91594945 33.61572589 11 35 C7.05136278 38.65493693 5.66505955 43.00482136 4 48 C3.34 48 2.68 48 2 48 C1.90847656 48.53109375 1.81695312 49.0621875 1.72265625 49.609375 C0.75649098 52.80555415 -0.85115751 55.38739075 -2.5625 58.25 C-3.20316406 59.32765625 -3.84382813 60.4053125 -4.50390625 61.515625 C-4.99761719 62.33546875 -5.49132813 63.1553125 -6 64 C-6.66 62.68 -7.32 61.36 -8 60 C-8.85078125 60.17273438 -9.7015625 60.34546875 -10.578125 60.5234375 C-14.11573636 61.01611853 -17.19676272 60.92792576 -20.75 60.625 C-21.87921875 60.53476563 -23.0084375 60.44453125 -24.171875 60.3515625 C-27 60 -27 60 -29 59 C-29.59355614 56.35139573 -29.74209269 53.70802678 -30 51 C-29.01 50.34 -28.02 49.68 -27 49 C-26.26393501 45.43230448 -26.26393501 45.43230448 -26 42 C-25.01 42.33 -24.02 42.66 -23 43 C-22.87625 42.0925 -22.7525 41.185 -22.625 40.25 C-22.07890323 37.41029677 -21.42736197 35.47409409 -20 33 C-20.70125 33.04125 -21.4025 33.0825 -22.125 33.125 C-25.38371628 32.98331668 -27.9559947 32.13265314 -31 31 C-31 30.34 -31 29.68 -31 29 C-31.99 29 -32.98 29 -34 29 C-38 22.81818182 -38 22.81818182 -38 19.1875 C-36.72663068 16.40200462 -35.82452083 16.08630756 -33 15 C-30.43457031 14.77294922 -30.43457031 14.77294922 -27.578125 14.8046875 C-26.55332031 14.81113281 -25.52851562 14.81757812 -24.47265625 14.82421875 C-23.40917969 14.84097656 -22.34570312 14.85773437 -21.25 14.875 C-19.63158203 14.88853516 -19.63158203 14.88853516 -17.98046875 14.90234375 C-15.32008722 14.92588695 -12.66015664 14.95877201 -10 15 C-9.67 14.01 -9.34 13.02 -9 12 C-8.34 12 -7.68 12 -7 12 C-6.67 11.01 -6.34 10.02 -6 9 C-5.34 9 -4.68 9 -4 9 C-4 8.01 -4 7.02 -4 6 C-3.34 6 -2.68 6 -2 6 C-1.855625 5.38125 -1.71125 4.7625 -1.5625 4.125 C-1 2 -1 2 0 0 Z " fill="#A0A0A0" transform="translate(66,44)"/>
<path d="M0 0 C0.66 0 1.32 0 2 0 C2.16604736 1.02154175 2.16604736 1.02154175 2.33544922 2.0637207 C2.84110996 5.14793552 3.35791841 8.23018029 3.875 11.3125 C4.04902344 12.38435547 4.22304687 13.45621094 4.40234375 14.56054688 C4.57636719 15.58857422 4.75039062 16.61660156 4.9296875 17.67578125 C5.08679199 18.62364502 5.24389648 19.57150879 5.40576172 20.5480957 C5.90830049 23.23415677 5.90830049 23.23415677 8 26 C8.66 26.33 9.32 26.66 10 27 C9.855625 25.94941406 9.71125 24.89882813 9.5625 23.81640625 C8.58494506 16.49781309 7.73567285 9.40116009 8 2 C8.33 2 8.66 2 9 2 C9.51283306 5.43570873 10.00780398 8.87377918 10.5 12.3125 C10.64308594 13.26962891 10.78617188 14.22675781 10.93359375 15.21289062 C11.87257641 21.85283947 12.17714233 28.29729513 12 35 C12.763125 35.12375 13.52625 35.2475 14.3125 35.375 C17 36 17 36 20 38 C20.73240193 42.49904044 19.54895752 45.61260298 17.65625 49.58203125 C14.8589685 51.97687367 11.60041917 51.71825988 8 52 C7.49055007 49.18892806 6.9922984 46.37658411 6.5 43.5625 C6.35691406 42.77939453 6.21382812 41.99628906 6.06640625 41.18945312 C5.93105469 40.40634766 5.79570313 39.62324219 5.65625 38.81640625 C5.53056641 38.10943604 5.40488281 37.40246582 5.27539062 36.67407227 C4.87663484 32.80211113 5 28.89244001 5 25 C-0.94 25 -6.88 25 -13 25 C-12.09806005 21.3922402 -11.11021082 19.17973237 -9.27734375 16.015625 C-8.47006836 14.61376953 -8.47006836 14.61376953 -7.64648438 13.18359375 C-6.80053711 11.73146484 -6.80053711 11.73146484 -5.9375 10.25 C-5.36966797 9.26644531 -4.80183594 8.28289063 -4.21679688 7.26953125 C-2.8155271 4.84380374 -1.40979613 2.42077879 0 0 Z " fill="#DF0C0E" transform="translate(90,38)"/>
<path d="M0 0 C0.99 0 1.98 0 3 0 C5.50485784 6.49716096 6.60414289 12.57566434 7.125 19.5 C7.26965666 21.28156103 7.41789197 23.0628364 7.5703125 24.84375 C7.62977051 25.61912109 7.68922852 26.39449219 7.75048828 27.19335938 C7.81731072 29.01855044 7.81731072 29.01855044 9 30 C9.39993686 32.68862664 9.75134543 35.36352217 10.0625 38.0625 C10.15337891 38.82111328 10.24425781 39.57972656 10.33789062 40.36132812 C10.5624374 42.2404301 10.78170978 44.12016095 11 46 C11.89074219 45.81695312 12.78148438 45.63390625 13.69921875 45.4453125 C16.83270806 45.02256956 18.78607063 45.12225948 21.8125 45.875 C22.58207031 46.05804688 23.35164063 46.24109375 24.14453125 46.4296875 C26 47 26 47 27 48 C27.04063832 49.66617115 27.042721 51.33388095 27 53 C27.99 53 28.98 53 30 53 C30 53.66 30 54.32 30 55 C30.66 55 31.32 55 32 55 C33.35281371 57.70562743 33.20609362 59.91893655 33.25 62.9375 C33.27578125 63.99839844 33.3015625 65.05929688 33.328125 66.15234375 C33 69 33 69 31.484375 70.87890625 C30.74960938 71.43384766 30.74960938 71.43384766 30 72 C30.05800781 71.13117188 30.11601563 70.26234375 30.17578125 69.3671875 C30.7494996 61.8697914 30.7494996 61.8697914 27.75 55.3125 C23.01841588 51.3336679 19.42273661 50.67586318 13.3125 50.4375 C6.12133072 50.12133072 6.12133072 50.12133072 5 49 C4.72606148 47.55878005 4.50871995 46.10670708 4.31640625 44.65234375 C4.19434814 43.74460205 4.07229004 42.83686035 3.9465332 41.90161133 C3.81980225 40.92345459 3.69307129 39.94529785 3.5625 38.9375 C3.43125732 37.94194092 3.30001465 36.94638184 3.16479492 35.9206543 C2.89904469 33.89818939 2.63512344 31.8754833 2.37304688 29.85253906 C2.04651255 27.35566269 1.70666233 24.86124143 1.359375 22.3671875 C0.33669551 14.87603828 -0.28853351 7.56598986 0 0 Z " fill="#D9D8D9" transform="translate(96,13)"/>
<path d="M0 0 C0.99 0 1.98 0 3 0 C2.71898437 0.67546875 2.43796875 1.3509375 2.1484375 2.046875 C0.91907726 5.0567198 0.91907726 5.0567198 0.0390625 8.515625 C-2.93935245 16.38127333 -2.93935245 16.38127333 -7 19 C-16.07739715 21.15207944 -25.74734658 20.49369674 -35 20 C-31.69250579 23.9027287 -29.33984024 26.67726476 -24.25390625 27.90234375 C-22.42666016 27.91974609 -22.42666016 27.91974609 -20.5625 27.9375 C-19.32628906 27.96714844 -18.09007812 27.99679688 -16.81640625 28.02734375 C-15.88699219 28.01832031 -14.95757812 28.00929688 -14 28 C-14.66986568 31.64132113 -16.23044042 34.33956877 -18.125 37.5 C-18.74890625 38.54671875 -19.3728125 39.5934375 -20.015625 40.671875 C-20.67046875 41.77015625 -21.3253125 42.8684375 -22 44 C-23.87558574 47.26381455 -25.74864623 50.52902255 -27.6171875 53.796875 C-28.07351562 54.52390625 -28.52984375 55.2509375 -29 56 C-29.33 56 -29.66 56 -30 56 C-30.1875 53.625 -30.1875 53.625 -30 51 C-29.01 50.34 -28.02 49.68 -27 49 C-26.26393501 45.43230448 -26.26393501 45.43230448 -26 42 C-25.01 42.33 -24.02 42.66 -23 43 C-22.87625 42.0925 -22.7525 41.185 -22.625 40.25 C-22.07890323 37.41029677 -21.42736197 35.47409409 -20 33 C-20.70125 33.04125 -21.4025 33.0825 -22.125 33.125 C-25.38371628 32.98331668 -27.9559947 32.13265314 -31 31 C-31 30.34 -31 29.68 -31 29 C-31.99 29 -32.98 29 -34 29 C-38 22.81818182 -38 22.81818182 -38 19.1875 C-36.72663068 16.40200462 -35.82452083 16.08630756 -33 15 C-30.43457031 14.77294922 -30.43457031 14.77294922 -27.578125 14.8046875 C-26.55332031 14.81113281 -25.52851562 14.81757812 -24.47265625 14.82421875 C-23.40917969 14.84097656 -22.34570312 14.85773437 -21.25 14.875 C-19.63158203 14.88853516 -19.63158203 14.88853516 -17.98046875 14.90234375 C-15.32008722 14.92588695 -12.66015664 14.95877201 -10 15 C-9.67 14.01 -9.34 13.02 -9 12 C-8.34 12 -7.68 12 -7 12 C-6.67 11.01 -6.34 10.02 -6 9 C-5.34 9 -4.68 9 -4 9 C-4 8.01 -4 7.02 -4 6 C-3.34 6 -2.68 6 -2 6 C-1.855625 5.38125 -1.71125 4.7625 -1.5625 4.125 C-1 2 -1 2 0 0 Z " fill="#DFDFDF" transform="translate(66,44)"/>
<path d="M0 0 C0.33 0 0.66 0 1 0 C1.38219895 15.30919139 1.38219895 15.30919139 -1 21 C-1.99 21.495 -1.99 21.495 -3 22 C-3.556875 23.051875 -4.11375 24.10375 -4.6875 25.1875 C-6.6796532 28.84855135 -9.14699579 31.1011583 -12.4140625 33.640625 C-14.77898538 35.66770176 -15.93664771 37.32782151 -16.23046875 40.4453125 C-16.21628906 41.32960937 -16.20210937 42.21390625 -16.1875 43.125 C-16.17783203 44.45917969 -16.17783203 44.45917969 -16.16796875 45.8203125 C-16.23953048 47.97736529 -16.23953048 47.97736529 -15 49 C-14.68358364 51.07428505 -14.44672549 53.1609627 -14.25 55.25 C-14.13140625 56.38953125 -14.0128125 57.5290625 -13.890625 58.703125 C-14.01468535 62.44265826 -14.58882971 64.15428913 -17 67 C-19.79965679 67.66913403 -22.08800141 67.23868841 -25 67 C-25.33 66.01 -25.66 65.02 -26 64 C-28.01508358 63.26676204 -28.01508358 63.26676204 -30 63 C-30.83716757 59.0177975 -31.47673502 55.02659184 -32.0625 51 C-32.23910156 49.80375 -32.41570312 48.6075 -32.59765625 47.375 C-32.93644165 44.53314965 -33.08111766 41.85534174 -33 39 C-36.28999282 38.58168596 -36.28999282 38.58168596 -40 39 C-42.63016161 41.1727422 -44.47336894 42.94673788 -46 46 C-46.66 46 -47.32 46 -48 46 C-48.103125 46.721875 -48.20625 47.44375 -48.3125 48.1875 C-49.06793947 51.27793421 -50.15531315 53.41743841 -52 56 C-52.66 56 -53.32 56 -54 56 C-52.95536425 49.90629145 -51.45034092 46.31126777 -47 42 C-46.67 41.278125 -46.34 40.55625 -46 39.8125 C-45 38 -45 38 -43.2265625 37.40234375 C-40.91107231 36.98393061 -38.72730033 36.79720335 -36.375 36.75 C-35.59898438 36.72421875 -34.82296875 36.6984375 -34.0234375 36.671875 C-33.35570313 36.78015625 -32.68796875 36.8884375 -32 37 C-29.18175424 41.22736865 -29.28200559 45.63453185 -28.87695312 50.57617188 C-28.42219989 55.24251361 -27.87163264 59.13318778 -25 63 C-21.40614946 63.97873538 -21.40614946 63.97873538 -18 64 C-18.0407666 63.23333008 -18.0815332 62.46666016 -18.12353516 61.67675781 C-18.30197554 58.20164455 -18.46366909 54.7259478 -18.625 51.25 C-18.68945312 50.0434375 -18.75390625 48.836875 -18.8203125 47.59375 C-18.871875 46.43359375 -18.9234375 45.2734375 -18.9765625 44.078125 C-19.02893066 43.00981445 -19.08129883 41.94150391 -19.13525391 40.84082031 C-18.99751248 37.94775301 -18.62383153 36.37787858 -17 34 C-15.67405895 33.63837971 -14.34061543 33.30271961 -13 33 C-12.67 32.01 -12.34 31.02 -12 30 C-11.34 29.67 -10.68 29.34 -10 29 C-9.505 27.515 -9.505 27.515 -9 26 C-8.34 26 -7.68 26 -7 26 C-6.814375 24.1128125 -6.814375 24.1128125 -6.625 22.1875 C-6.30131941 18.89674737 -5.93395001 17.90092502 -4 15 C-3.34 15 -2.68 15 -2 15 C-0.9458482 11.83754459 -0.68724328 9.13051782 -0.4375 5.8125 C-0.35371094 4.72582031 -0.26992187 3.63914062 -0.18359375 2.51953125 C-0.09271484 1.27236328 -0.09271484 1.27236328 0 0 Z " fill="#D7D8D8" transform="translate(129,70)"/>
<path d="M0 0 C0.66 0 1.32 0 2 0 C2.86111516 3.02769315 3.18230893 5.84266637 3.31640625 8.984375 C3.35830078 9.91894531 3.40019531 10.85351562 3.44335938 11.81640625 C3.48267578 12.78449219 3.52199219 13.75257812 3.5625 14.75 C3.60568359 15.73355469 3.64886719 16.71710937 3.69335938 17.73046875 C3.79921949 20.15348927 3.90009312 22.57672672 4 25 C-1.61 25 -7.22 25 -13 25 C-12.09806005 21.3922402 -11.11021082 19.17973237 -9.27734375 16.015625 C-8.47006836 14.61376953 -8.47006836 14.61376953 -7.64648438 13.18359375 C-6.80053711 11.73146484 -6.80053711 11.73146484 -5.9375 10.25 C-5.36966797 9.26644531 -4.80183594 8.28289063 -4.21679688 7.26953125 C-2.8155271 4.84380374 -1.40979613 2.42077879 0 0 Z " fill="#977A7A" transform="translate(90,38)"/>
<path d="M0 0 C0.66 0.33 1.32 0.66 2 1 C1.52052045 6.03453529 -0.09341452 8.91261417 -3 13 C-3.33 13.99 -3.66 14.98 -4 16 C-4.66 16 -5.32 16 -6 16 C-6.09152344 16.53109375 -6.18304688 17.0621875 -6.27734375 17.609375 C-7.24350902 20.80555415 -8.85115751 23.38739075 -10.5625 26.25 C-11.52349609 27.86648437 -11.52349609 27.86648437 -12.50390625 29.515625 C-12.99761719 30.33546875 -13.49132812 31.1553125 -14 32 C-14.66 30.68 -15.32 29.36 -16 28 C-16.85078125 28.17273438 -17.7015625 28.34546875 -18.578125 28.5234375 C-22.11573636 29.01611853 -25.19676272 28.92792576 -28.75 28.625 C-30.44382812 28.48964844 -30.44382812 28.48964844 -32.171875 28.3515625 C-35 28 -35 28 -37 27 C-37 26.01 -37 25.02 -37 24 C-30.4 24.33 -23.8 24.66 -17 25 C-17 24.34 -17 23.68 -17 23 C-16.01 22.67 -15.02 22.34 -14 22 C-13.21265702 20.0644485 -12.43531274 18.12254534 -11.76171875 16.14453125 C-10.75135824 13.29997782 -9.40140703 10.66934673 -8 8 C-7.01 8 -6.02 8 -5 8 C-4.9175 7.4225 -4.835 6.845 -4.75 6.25 C-3.79468987 3.3840696 -2.21530827 2.0009236 0 0 Z " fill="#C4C3C4" transform="translate(74,76)"/>
<path d="M0 0 C1 2 1 2 0.4765625 4.09375 C0.19554687 4.8878125 -0.08546875 5.681875 -0.375 6.5 C-0.65085938 7.2940625 -0.92671875 8.088125 -1.2109375 8.90625 C-2 11 -2 11 -3 13 C-3.66 13 -4.32 13 -5 13 C-5.15855469 13.59167969 -5.31710938 14.18335938 -5.48046875 14.79296875 C-7.05670522 20.13127237 -8.61448587 23.34540489 -13 27 C-13.71414062 27.69480469 -14.42828125 28.38960937 -15.1640625 29.10546875 C-18.78510387 31.52448399 -21.79201597 31.5931657 -26 31.5 C-26.69867188 31.51546875 -27.39734375 31.5309375 -28.1171875 31.546875 C-33.02562071 31.50983022 -35.52287041 30.42279944 -39 27 C-38.67 26.34 -38.34 25.68 -38 25 C-31.07 25.33 -24.14 25.66 -17 26 C-16.34 24.35 -15.68 22.7 -15 21 C-13.89345877 18.87490756 -12.74545328 16.77102416 -11.5625 14.6875 C-10.96566406 13.61886719 -10.36882812 12.55023438 -9.75390625 11.44921875 C-9.17511719 10.64097656 -8.59632812 9.83273438 -8 9 C-7.01 9 -6.02 9 -5 9 C-4.67 7.35 -4.34 5.7 -4 4 C-3.01 4 -2.02 4 -1 4 C-0.67 2.68 -0.34 1.36 0 0 Z " fill="#C2C2C2" transform="translate(75,121)"/>
<path d="M0 0 C6.27 0 12.54 0 19 0 C19 2.97 19 5.94 19 9 C11.08 9 3.16 9 -5 9 C-3 4 -3 4 -2 2 C-1.34 2 -0.68 2 0 2 C0 1.34 0 0.68 0 0 Z " fill="#080102" transform="translate(76,63)"/>
<path d="M0 0 C9.24 0 18.48 0 28 0 C26.35 2.97 24.7 5.94 23 9 C9.94652309 10.22376346 9.94652309 10.22376346 5.22265625 7.25390625 C0 1.9556962 0 1.9556962 0 0 Z " fill="#040303" transform="translate(30,63)"/>
<path d="M0 0 C2.64 0 5.28 0 8 0 C8.33786094 3.5412499 8.66947831 7.08305816 9 10.625 C9.09539062 11.62402344 9.19078125 12.62304688 9.2890625 13.65234375 C9.73400626 18.45138006 10.13177309 23.17381074 10 28 C8.02 28 6.04 28 4 28 C2.11715174 18.72597081 1.0355769 9.39730952 0 0 Z " fill="#EF0404" transform="translate(99,103)"/>
<path d="M0 0 C6.875 5.875 6.875 5.875 8 7 C10.34987262 7.23527773 12.70556039 7.41386417 15.0625 7.5625 C16.99802734 7.68818359 16.99802734 7.68818359 18.97265625 7.81640625 C20.47119141 7.90728516 20.47119141 7.90728516 22 8 C21.33013432 11.64132113 19.76955958 14.33956877 17.875 17.5 C17.25109375 18.54671875 16.6271875 19.5934375 15.984375 20.671875 C15.32953125 21.77015625 14.6746875 22.8684375 14 24 C12.12441426 27.26381455 10.25135377 30.52902255 8.3828125 33.796875 C7.92648438 34.52390625 7.47015625 35.2509375 7 36 C6.67 36 6.34 36 6 36 C5.8125 33.625 5.8125 33.625 6 31 C6.99 30.34 7.98 29.68 9 29 C9.73606499 25.43230448 9.73606499 25.43230448 10 22 C10.99 22.33 11.98 22.66 13 23 C13.12375 22.0925 13.2475 21.185 13.375 20.25 C13.92109677 17.41029677 14.57263803 15.47409409 16 13 C14.948125 13.061875 14.948125 13.061875 13.875 13.125 C10.61628372 12.98331668 8.0440053 12.13265314 5 11 C5 10.34 5 9.68 5 9 C4.01 9 3.02 9 2 9 C1.34 6.03 0.68 3.06 0 0 Z " fill="#CECECE" transform="translate(30,64)"/>
<path d="M0 0 C0.99 0.33 1.98 0.66 3 1 C2.68546875 1.49628906 2.3709375 1.99257812 2.046875 2.50390625 C1.61890625 3.18324219 1.1909375 3.86257812 0.75 4.5625 C0.12351562 5.55443359 0.12351562 5.55443359 -0.515625 6.56640625 C-2.41072477 9.67337246 -4.20322398 12.83567779 -6 16 C-7.00476933 17.75936537 -8.01001285 19.51845998 -9.015625 21.27734375 C-9.54414062 22.20224609 -10.07265625 23.12714844 -10.6171875 24.08007812 C-13.078125 28.38671875 -15.5390625 32.69335938 -18 37 C-18.66 36.01 -19.32 35.02 -20 34 C-19.20703125 31.36328125 -19.20703125 31.36328125 -17.8125 28.3125 C-16.20471665 24.71350529 -14.65683425 21.16521259 -13.375 17.4375 C-12.09256298 14.23140746 -11.36157532 13.25536691 -9 11 C-8.67 10.34 -8.34 9.68 -8 9 C-7.34 9 -6.68 9 -6 9 C-5.67 7.68 -5.34 6.36 -5 5 C-4.34 5 -3.68 5 -3 5 C-3 4.34 -3 3.68 -3 3 C-2.34 3 -1.68 3 -1 3 C-0.67 2.01 -0.34 1.02 0 0 Z " fill="#E3E3E3" transform="translate(56,109)"/>
<path d="M0 0 C2.42901902 2.42901902 2.32209476 3.15638857 2.375 6.5 C2.29586589 11.46386708 1.01232632 15.28470121 -1.02734375 19.7734375 C-1.93240302 21.84525992 -2.52188903 23.79565678 -3 26 C-3.66 26 -4.32 26 -5 26 C-5.04125 26.598125 -5.0825 27.19625 -5.125 27.8125 C-6 30 -6 30 -8.875 31.75 C-12 33 -12 33 -15 33 C-16.00259507 36.00778521 -16.30314642 38.53820647 -16.5625 41.6875 C-16.64628906 42.68136719 -16.73007813 43.67523438 -16.81640625 44.69921875 C-16.87699219 45.45847656 -16.93757813 46.21773437 -17 47 C-17.33 47 -17.66 47 -18 47 C-18.46164043 41.90272024 -18.71365085 37.08271944 -18 32 C-16.17610665 29.88321867 -14.62893174 29.14175249 -12.09765625 28.0078125 C-6.83243741 25.47815428 -4.77119674 19.79348881 -2.75 14.625 C-1.06677594 9.7178589 -0.33879544 5.16663039 0 0 Z " fill="#949494" transform="translate(125,70)"/>
<path d="M0 0 C2.06434792 3.09652188 2.44909959 4.64947235 3 8.25 C3.165 9.31605469 3.33 10.38210937 3.5 11.48046875 C4.20422826 16.4375755 4.84983891 21.40173091 5.4921875 26.3671875 C6.07247713 30.51849026 6.81212195 34.62070299 7.6328125 38.73046875 C8 41 8 41 8 45 C12.29 45.66 16.58 46.32 21 47 C21 47.33 21 47.66 21 48 C18.52076199 48.02685095 16.0418116 48.04676547 13.5625 48.0625 C12.85544922 48.07087891 12.14839844 48.07925781 11.41992188 48.08789062 C9.61306441 48.09653588 7.80612397 48.05220011 6 48 C4.45324238 46.45324238 4.60009082 44.79769505 4.31640625 42.65234375 C4.19434814 41.74444092 4.07229004 40.83653809 3.9465332 39.90112305 C3.81980225 38.92312744 3.69307129 37.94513184 3.5625 36.9375 C3.43125732 35.94339111 3.30001465 34.94928223 3.16479492 33.92504883 C2.89893988 31.90406272 2.63501985 29.88282111 2.37304688 27.86132812 C2.04413326 25.33850904 1.70439914 22.81752909 1.359375 20.296875 C0.44382062 13.48965338 -0.24553154 6.87488309 0 0 Z " fill="#A99FA0" transform="translate(96,15)"/>
<path d="M0 0 C0.66 0 1.32 0 2 0 C2 0.66 2 1.32 2 2 C5.3 2 8.6 2 12 2 C12 2.66 12 3.32 12 4 C10.76894531 4.02707031 9.53789063 4.05414062 8.26953125 4.08203125 C4.50556816 4.55719116 4.15948775 4.80609782 1.57421875 7.94921875 C0.9159317 9.18004403 0.287454 10.42721118 -0.3125 11.6875 C-0.79299805 12.60692383 -0.79299805 12.60692383 -1.28320312 13.54492188 C-2.21915563 15.34983642 -3.11298616 17.17062745 -4 19 C-4.57105469 20.14082031 -5.14210938 21.28164063 -5.73046875 22.45703125 C-6.14941406 23.29621094 -6.56835938 24.13539062 -7 25 C-7.66 25 -8.32 25 -9 25 C-9.268125 25.928125 -9.53625 26.85625 -9.8125 27.8125 C-10.91148371 30.76240366 -11.62418561 32.05615186 -14 34 C-14 32.68 -14 31.36 -14 30 C-13.34 30 -12.68 30 -12 30 C-12 28.35 -12 26.7 -12 25 C-11.01 24.67 -10.02 24.34 -9 24 C-9 22.68 -9 21.36 -9 20 C-8.01 20 -7.02 20 -6 20 C-6.0928125 18.453125 -6.0928125 18.453125 -6.1875 16.875 C-5.98864405 12.76531027 -5.05532197 10.51117504 -3 7 C-2.34 7 -1.68 7 -1 7 C-0.67 4.69 -0.34 2.38 0 0 Z " fill="#E7D8D8" transform="translate(84,9)"/>
<path d="M0 0 C0.66 0 1.32 0 2 0 C2.50961846 1.39235043 3.00724909 2.78909118 3.5 4.1875 C3.7784375 4.96480469 4.056875 5.74210937 4.34375 6.54296875 C5 9 5 9 5 14 C0.38 14 -4.24 14 -9 14 C-9 10 -9 10 -7.5390625 8.4375 C-6.90742187 7.963125 -6.27578125 7.48875 -5.625 7 C-2.84668143 4.8962526 -1.37499323 3.22220637 0 0 Z " fill="#D6D7D7" transform="translate(89,48)"/>
<path d="M0 0 C0.609375 1.796875 0.609375 1.796875 1 4 C0.08155585 5.70568199 -0.84858634 7.4078066 -1.875 9.05078125 C-3.69923484 12.21152148 -4.79376898 15.5622416 -6 19 C-6.99 19 -7.98 19 -9 19 C-9 19.66 -9 20.32 -9 21 C-11.39591038 21.02712351 -13.79150957 21.0468982 -16.1875 21.0625 C-16.86103516 21.07087891 -17.53457031 21.07925781 -18.22851562 21.08789062 C-21.95434131 21.10606538 -25.3788042 20.89299392 -29 20 C-28.67 19.34 -28.34 18.68 -28 18 C-22.06 18.33 -16.12 18.66 -10 19 C-9.34 17.02 -8.68 15.04 -8 13 C-6.66978657 10.65476428 -5.32552637 8.39048641 -3.875 6.125 C-3.50246094 5.53203125 -3.12992188 4.9390625 -2.74609375 4.328125 C-1.83635 2.8818657 -0.91896202 1.44041954 0 0 Z " fill="#AA8A8A" transform="translate(66,80)"/>
<path d="M0 0 C0.97918775 3.07556958 1.1498998 3.68592423 -0.3125 6.75 C-0.869375 7.4925 -1.42625 8.235 -2 9 C-2.66 9 -3.32 9 -4 9 C-4.103125 9.9075 -4.20625 10.815 -4.3125 11.75 C-5.3483938 16.64695251 -5.3483938 16.64695251 -8 19 C-11.15336135 19.53609105 -14.24919885 19.41964978 -17.4375 19.3125 C-18.29666016 19.30283203 -19.15582031 19.29316406 -20.04101562 19.28320312 C-23.86541764 19.21496321 -27.30261175 19.04134805 -31 18 C-30.67 17.34 -30.34 16.68 -30 16 C-23.07 16.33 -16.14 16.66 -9 17 C-8.34 15.35 -7.68 13.7 -7 12 C-5.82320172 9.87803567 -4.61325925 7.77419615 -3.375 5.6875 C-2.74335937 4.61886719 -2.11171875 3.55023438 -1.4609375 2.44921875 C-0.97882813 1.64097656 -0.49671875 0.83273438 0 0 Z " fill="#7B7B7B" transform="translate(67,130)"/>
<path d="M0 0 C2.96175123 0.61277612 4.38058783 1.25372522 7 3 C7.89178672 8.47811844 5.85528422 11.5386184 3 16 C2.34 16 1.68 16 1 16 C0.08342019 10.61509359 -0.11138159 5.45769811 0 0 Z " fill="#A39B9B" transform="translate(103,73)"/>
<path d="M0 0 C0.66 0 1.32 0 2 0 C2.1546875 1.175625 2.1546875 1.175625 2.3125 2.375 C2.77595022 5.33045181 2.77595022 5.33045181 6 7 C8.67768864 7.27470888 11.19625281 7.41578043 13.875 7.4375 C14.93654297 7.48680664 14.93654297 7.48680664 16.01953125 7.53710938 C20.03028276 7.57818784 21.73168993 7.22854666 24.8203125 4.59765625 C25.53960937 3.74042969 26.25890625 2.88320312 27 2 C27.99 1.34 28.98 0.68 30 0 C29.71746335 3.2962609 29.02756841 4.9625621 27.046875 7.65234375 C22.80914205 10.91757132 19.62818611 10.60429154 14.4375 10.375 C13.58736328 10.36082031 12.73722656 10.34664062 11.86132812 10.33203125 C4.40421692 10.15656981 4.40421692 10.15656981 1 9 C-0.4783226 6.04335481 -0.06032783 3.25770263 0 0 Z " fill="#E4E4E4" transform="translate(35,144)"/>
<path d="M0 0 C7.92 0 15.84 0 24 0 C24 1.32 24 2.64 24 4 C19.0969311 5.03303653 14.69864368 4.987538 9.75 4.625 C9.03070313 4.58117187 8.31140625 4.53734375 7.5703125 4.4921875 C2.26968344 4.13484172 2.26968344 4.13484172 0 3 C0 2.01 0 1.02 0 0 Z " fill="#CDCDCC" transform="translate(37,100)"/>
<path d="M0 0 C0.33 0.66 0.66 1.32 1 2 C0.360625 2.268125 -0.27875 2.53625 -0.9375 2.8125 C-3.33131686 3.88667752 -3.33131686 3.88667752 -4 7 C-4.08291953 8.9920303 -4.10738177 10.98673713 -4.09765625 12.98046875 C-4.09443359 14.14384766 -4.09121094 15.30722656 -4.08789062 16.50585938 C-4.07951172 17.72080078 -4.07113281 18.93574219 -4.0625 20.1875 C-4.05798828 21.41404297 -4.05347656 22.64058594 -4.04882812 23.90429688 C-4.03703065 26.93624668 -4.02056921 29.96809906 -4 33 C-6.31 33 -8.62 33 -11 33 C-11.33 32.34 -11.66 31.68 -12 31 C-9.69 31 -7.38 31 -5 31 C-5.144375 30.12859375 -5.28875 29.2571875 -5.4375 28.359375 C-8.68421053 7.52631579 -8.68421053 7.52631579 -5 2 C-2.375 0.8125 -2.375 0.8125 0 0 Z " fill="#BBB8B7" transform="translate(115,101)"/>
<path d="M0 0 C0.66 0.33 1.32 0.66 2 1 C2 1.66 2 2.32 2 3 C1.01 3.495 1.01 3.495 0 4 C0 4.66 0 5.32 0 6 C0.66 6 1.32 6 2 6 C2.33 5.01 2.66 4.02 3 3 C3.99 2.67 4.98 2.34 6 2 C6 2.66 6 3.32 6 4 C5.34 4 4.68 4 4 4 C3.90847656 4.53109375 3.81695312 5.0621875 3.72265625 5.609375 C2.75649098 8.80555415 1.14884249 11.38739075 -0.5625 14.25 C-1.20316406 15.32765625 -1.84382813 16.4053125 -2.50390625 17.515625 C-3.24447266 18.74539062 -3.24447266 18.74539062 -4 20 C-4.66 19.01 -5.32 18.02 -6 17 C-5.01 16.67 -4.02 16.34 -3 16 C-3.33 15.01 -3.66 14.02 -4 13 C-4.99 13 -5.98 13 -7 13 C-7 12.34 -7 11.68 -7 11 C-6.01 10.67 -5.02 10.34 -4 10 C-3.01672597 8.20200258 -3.01672597 8.20200258 -2.375 6.0625 C-1.66251244 3.95185136 -0.99716245 1.9943249 0 0 Z " fill="#B8B7B7" transform="translate(64,88)"/>
<path d="M0 0 C0.33 0 0.66 0 1 0 C1.33 5.28 1.66 10.56 2 16 C0.02 16.33 -1.96 16.66 -4 17 C-4.33 12.71 -4.66 8.42 -5 4 C-4.01 5.485 -4.01 5.485 -3 7 C-2.34 7 -1.68 7 -1 7 C-0.67 4.69 -0.34 2.38 0 0 Z " fill="#E40503" transform="translate(102,73)"/>
<path d="M0 0 C0.99 0.33 1.98 0.66 3 1 C1.91479492 3.46948242 1.91479492 3.46948242 0 6 C-3.00268555 6.56762695 -3.00268555 6.56762695 -6.63671875 6.48828125 C-7.93544922 6.47216797 -9.23417969 6.45605469 -10.57226562 6.43945312 C-11.94402699 6.39767609 -13.31577177 6.35535135 -14.6875 6.3125 C-16.07092382 6.28741745 -17.45439077 6.26460418 -18.83789062 6.24414062 C-22.22634764 6.18510827 -25.61263385 6.10280082 -29 6 C-25.6816923 4.01039227 -23.20040301 3.7638255 -19.359375 3.8046875 C-18.28945313 3.81113281 -17.21953125 3.81757812 -16.1171875 3.82421875 C-15.00601563 3.84097656 -13.89484375 3.85773437 -12.75 3.875 C-11.62335937 3.88402344 -10.49671875 3.89304688 -9.3359375 3.90234375 C-6.55707635 3.92589342 -3.7786461 3.9587832 -1 4 C-0.67 2.68 -0.34 1.36 0 0 Z " fill="#B3A9A9" transform="translate(59,57)"/>
<path d="M0 0 C2.52197266 -0.34057617 2.52197266 -0.34057617 5.6640625 -0.29296875 C6.78554687 -0.28330078 7.90703125 -0.27363281 9.0625 -0.26367188 C10.238125 -0.23853516 11.41375 -0.21339844 12.625 -0.1875 C13.80835937 -0.17396484 14.99171875 -0.16042969 16.2109375 -0.14648438 C19.14107539 -0.11103916 22.07031459 -0.06162769 25 0 C25.33430219 1.91083667 25.66417496 3.82244861 25.9921875 5.734375 C26.1763623 6.79881836 26.36053711 7.86326172 26.55029297 8.95996094 C27.05783885 12.39099312 27.15709959 15.54380907 27 19 C26.67 19 26.34 19 26 19 C25.66191314 16.93827387 25.32972639 14.8755797 25 12.8125 C24.814375 11.66394531 24.62875 10.51539062 24.4375 9.33203125 C24 6 24 6 24 1 C16.41 1.33 8.82 1.66 1 2 C0.34 3.65 -0.32 5.3 -1 7 C-1.99 7.33 -2.98 7.66 -4 8 C-2.87548273 5.0280615 -1.77706209 2.66559313 0 0 Z " fill="#8B6262" transform="translate(71,72)"/>
<path d="M0 0 C1.98 0 3.96 0 6 0 C6 1.32 6 2.64 6 4 C6.99 4 7.98 4 9 4 C9 4.66 9 5.32 9 6 C9.66 6 10.32 6 11 6 C12.35281371 8.70562743 12.20609362 10.91893655 12.25 13.9375 C12.28867188 15.52884766 12.28867188 15.52884766 12.328125 17.15234375 C12 20 12 20 10.484375 21.87890625 C9.99453125 22.24886719 9.5046875 22.61882812 9 23 C9.05800781 22.13117188 9.11601563 21.26234375 9.17578125 20.3671875 C9.7494996 12.8697914 9.7494996 12.8697914 6.75 6.3125 C4.50920663 4.42819648 2.72937877 3.01088103 0 2 C0 1.34 0 0.68 0 0 Z " fill="#BFBFBF" transform="translate(117,62)"/>
<path d="M0 0 C0.66 0 1.32 0 2 0 C3.00109515 3.31070838 3.10356134 6.30084769 3.0625 9.75 C3.05347656 10.73484375 3.04445313 11.7196875 3.03515625 12.734375 C3.02355469 13.48203125 3.01195313 14.2296875 3 15 C2.34 14.67 1.68 14.34 1 14 C1 12.68 1 11.36 1 10 C-1.51083114 11.25541557 -1.87125446 12.50063488 -3 15 C-4.6245738 11.7508524 -3.75398006 8.42897017 -3 5 C-1.5625 2 -1.5625 2 0 0 Z " fill="#B2AFAE" transform="translate(90,38)"/>
<path d="M0 0 C0.99 0 1.98 0 3 0 C5.14698307 3.51050566 5.30296135 6.4419161 5.4140625 10.515625 C5.45273438 11.76601563 5.49140625 13.01640625 5.53125 14.3046875 C5.5621875 15.60664063 5.593125 16.90859375 5.625 18.25 C5.66367188 19.56742188 5.70234375 20.88484375 5.7421875 22.2421875 C5.83646182 25.49465161 5.9220675 28.74710996 6 32 C5.67 32 5.34 32 5 32 C4.87939209 30.97229492 4.87939209 30.97229492 4.75634766 29.92382812 C4.38455589 26.78189598 4.00483813 23.64096914 3.625 20.5 C3.49867187 19.42234375 3.37234375 18.3446875 3.2421875 17.234375 C2.52388479 11.34429281 1.59574181 5.71691849 0 0 Z " fill="#C4C6C6" transform="translate(96,13)"/>
<path d="M0 0 C1 2 1 2 0.4765625 4.09375 C0.05503906 5.28484375 0.05503906 5.28484375 -0.375 6.5 C-0.65085937 7.2940625 -0.92671875 8.088125 -1.2109375 8.90625 C-2 11 -2 11 -3 13 C-3.66 13 -4.32 13 -5 13 C-5.99 15.97 -6.98 18.94 -8 22 C-8.66 22 -9.32 22 -10 22 C-9.67 20.35 -9.34 18.7 -9 17 C-8.34 17 -7.68 17 -7 17 C-7 14.36 -7 11.72 -7 9 C-6.34 9 -5.68 9 -5 9 C-4.67 7.35 -4.34 5.7 -4 4 C-3.01 4 -2.02 4 -1 4 C-0.67 2.68 -0.34 1.36 0 0 Z " fill="#D4D4D4" transform="translate(75,121)"/>
<path d="M0 0 C0.66 0.33 1.32 0.66 2 1 C2.51953125 3.765625 2.51953125 3.765625 2.8125 7.25 C2.92207031 8.38953125 3.03164062 9.5290625 3.14453125 10.703125 C2.9813154 14.42621096 2.39905118 16.16235576 0 19 C-2.79965679 19.66913403 -5.08800141 19.23868841 -8 19 C-8.33 18.34 -8.66 17.68 -9 17 C-5.04 16.505 -5.04 16.505 -1 16 C-0.67 10.72 -0.34 5.44 0 0 Z " fill="#E3E3E3" transform="translate(112,118)"/>
<path d="M0 0 C6.02070019 9.03105028 4.20898358 22.55082087 4 33 C3.67 33 3.34 33 3 33 C2.94465088 32.41508789 2.88930176 31.83017578 2.83227539 31.22753906 C2.57882735 28.56804892 2.32071175 25.90903168 2.0625 23.25 C1.97548828 22.32960938 1.88847656 21.40921875 1.79882812 20.4609375 C1.71181641 19.57148437 1.62480469 18.68203125 1.53515625 17.765625 C1.456604 16.94868164 1.37805176 16.13173828 1.29711914 15.29003906 C1.01653464 13.12744035 0.53909415 11.1095957 0 9 C-0.06548492 7.41788427 -0.08578381 5.83329919 -0.0625 4.25 C-0.05347656 3.45078125 -0.04445313 2.6515625 -0.03515625 1.828125 C-0.02355469 1.22484375 -0.01195313 0.6215625 0 0 Z " fill="#B07B7A" transform="translate(96,15)"/>
<path d="M0 0 C2.64 0 5.28 0 8 0 C8 4.29 8 8.58 8 13 C7.67 13 7.34 13 7 13 C6.731875 12.05125 6.46375 11.1025 6.1875 10.125 C5.25013412 6.74732727 5.25013412 6.74732727 2 5 C1.67 5.99 1.34 6.98 1 8 C0.67 5.36 0.34 2.72 0 0 Z " fill="#B80D0E" transform="translate(99,103)"/>
<path d="M0 0 C1.48831242 0.00667405 2.97660807 0.01863442 4.46484375 0.03515625 C5.22345703 0.03966797 5.98207031 0.04417969 6.76367188 0.04882812 C8.64326246 0.06064945 10.52281274 0.07858547 12.40234375 0.09765625 C12.73234375 1.74765625 13.06234375 3.39765625 13.40234375 5.09765625 C12.84546875 4.77410156 12.28859375 4.45054688 11.71484375 4.1171875 C9.10393334 2.96609355 7.24498558 2.79815614 4.40234375 2.78515625 C3.55671875 2.76839844 2.71109375 2.75164062 1.83984375 2.734375 C-1.06222726 3.1668952 -2.35678044 4.26728571 -4.59765625 6.09765625 C-5.25765625 6.09765625 -5.91765625 6.09765625 -6.59765625 6.09765625 C-4.297268 0.1166468 -4.297268 0.1166468 0 0 Z " fill="#8B8686" transform="translate(86.59765625,102.90234375)"/>
<path d="M0 0 C1.39460991 2.78921982 0.58060045 4.12077103 -0.3125 7.0625 C-0.70888672 8.41021484 -0.70888672 8.41021484 -1.11328125 9.78515625 C-2 12 -2 12 -4 13 C-4.33 13.99 -4.66 14.98 -5 16 C-5.99 16 -6.98 16 -8 16 C-8.33 17.65 -8.66 19.3 -9 21 C-9.66 21 -10.32 21 -11 21 C-9.53171057 15.82064939 -7.18508737 11.65626588 -4.375 7.125 C-3.95476562 6.43664062 -3.53453125 5.74828125 -3.1015625 5.0390625 C-2.07307528 3.35608342 -1.037279 1.67757468 0 0 Z " fill="#888888" transform="translate(79,109)"/>
<path d="M0 0 C0.66 0.33 1.32 0.66 2 1 C2 2.98 2 4.96 2 7 C4.33075929 6.04134491 4.33075929 6.04134491 6 3 C6 4.98 6 6.96 6 9 C2.7 9 -0.6 9 -4 9 C-2.94124926 5.59687262 -1.99097846 2.98646769 0 0 Z " fill="#ACA7A6" transform="translate(91,82)"/>
<path d="M0 0 C1 1 1 1 1.09765625 3.28515625 C1.08605469 4.20167969 1.07445313 5.11820312 1.0625 6.0625 C1.05347656 6.98160156 1.04445313 7.90070313 1.03515625 8.84765625 C1.02355469 9.55792969 1.01195313 10.26820312 1 11 C0.01 11.33 -0.98 11.66 -2 12 C-2.19573608 10.56359829 -2.38127816 9.12580496 -2.5625 7.6875 C-2.66691406 6.88699219 -2.77132812 6.08648437 -2.87890625 5.26171875 C-3 3 -3 3 -2 0 C-5.3 0 -8.6 0 -12 0 C-12 -0.33 -12 -0.66 -12 -1 C-7.31667771 -2.11507674 -4.44276449 -1.85976188 0 0 Z " fill="#BDBDBD" transform="translate(95,77)"/>
<path d="M0 0 C0.66 0 1.32 0 2 0 C0.99806563 3.79303725 0.18975773 6.71536341 -2 10 C-2.66 10 -3.32 10 -4 10 C-4.268125 10.928125 -4.53625 11.85625 -4.8125 12.8125 C-5.91148371 15.76240366 -6.62418561 17.05615186 -9 19 C-9 17.68 -9 16.36 -9 15 C-8.34 15 -7.68 15 -7 15 C-7 13.35 -7 11.7 -7 10 C-6.01 9.67 -5.02 9.34 -4 9 C-4 7.68 -4 6.36 -4 5 C-3.01 5 -2.02 5 -1 5 C-0.67 3.35 -0.34 1.7 0 0 Z " fill="#E5B4B3" transform="translate(79,24)"/>
<path d="M0 0 C0.703125 1.58984375 0.703125 1.58984375 1 4 C-0.328125 7.12890625 -0.328125 7.12890625 -2.25 10.5625 C-2.87390625 11.69816406 -3.4978125 12.83382812 -4.140625 14.00390625 C-5.63215625 16.40727699 -6.88636364 18.16687711 -9 20 C-9.1875 17.625 -9.1875 17.625 -9 15 C-8.01 14.34 -7.02 13.68 -6 13 C-5.26393501 9.43230448 -5.26393501 9.43230448 -5 6 C-4.01 6.33 -3.02 6.66 -2 7 C-1.855625 6.030625 -1.71125 5.06125 -1.5625 4.0625 C-1 1 -1 1 0 0 Z " fill="#E2C1C2" transform="translate(45,80)"/>
<path d="M0 0 C0.66 0 1.32 0 2 0 C2.1546875 1.175625 2.1546875 1.175625 2.3125 2.375 C2.77595022 5.33045181 2.77595022 5.33045181 6 7 C8.58885171 7.29991069 11.09149082 7.50865225 13.6875 7.625 C14.7403418 7.68300781 14.7403418 7.68300781 15.81445312 7.7421875 C17.54254655 7.8362334 19.27123675 7.9191968 21 8 C21 8.33 21 8.66 21 9 C14.4 9 7.8 9 1 9 C-0.4783226 6.04335481 -0.06032783 3.25770263 0 0 Z " fill="#DEDEDE" transform="translate(35,144)"/>
<path d="M0 0 C0.33 0 0.66 0 1 0 C1.38219895 15.30919139 1.38219895 15.30919139 -1 21 C-1.66 21.33 -2.32 21.66 -3 22 C-3.66 22.99 -4.32 23.98 -5 25 C-4.63553248 21.3553248 -4.29926011 18.53617437 -2.5 15.3125 C-0.26468961 10.37618956 -0.25168835 5.36356544 0 0 Z " fill="#E0E0E0" transform="translate(129,70)"/>
<path d="M0 0 C6.6 0.33 13.2 0.66 20 1 C19.67 1.66 19.34 2.32 19 3 C16.20775927 3.08071788 13.41783434 3.14035408 10.625 3.1875 C9.8309375 3.21263672 9.036875 3.23777344 8.21875 3.26367188 C6.14413852 3.29004405 4.06899135 3.15486462 2 3 C1.34 2.01 0.68 1.02 0 0 Z " fill="#B7B7B7" transform="translate(37,148)"/>
<path d="M0 0 C-0.41474367 5.28798182 -1.35224614 8.11690718 -5 12 C-5.33 11.01 -5.66 10.02 -6 9 C-5.01 8.67 -4.02 8.34 -3 8 C-3.33 7.01 -3.66 6.02 -4 5 C-4.99 5 -5.98 5 -7 5 C-7 4.34 -7 3.68 -7 3 C-1.125 0 -1.125 0 0 0 Z " fill="#C0C1C0" transform="translate(64,96)"/>
<path d="M0 0 C0.99 0 1.98 0 3 0 C2 3 2 3 0 4 C0 6.64 0 9.28 0 12 C0.66 12.33 1.32 12.66 2 13 C1.01 13 0.02 13 -1 13 C-1 12.34 -1 11.68 -1 11 C-1.66 11 -2.32 11 -3 11 C-4.04434887 7.67707176 -4.2162055 6.43241099 -2.625 3.25 C-1 1 -1 1 0 0 Z " fill="#E9E7EA" transform="translate(37,91)"/>
<path d="M0 0 C2.8125 0.375 2.8125 0.375 4.8125 1.375 C4.8125 2.035 4.8125 2.695 4.8125 3.375 C2.9375 4 2.9375 4 0.8125 4.375 C0.1525 3.715 -0.5075 3.055 -1.1875 2.375 C-1.8475 2.375 -2.5075 2.375 -3.1875 2.375 C-4.39378008 4.70714148 -5.3529738 6.87142139 -6.1875 9.375 C-6.8475 9.375 -7.5075 9.375 -8.1875 9.375 C-8.1875 5.375 -8.1875 5.375 -6.0625 2.625 C-3.1875 0.375 -3.1875 0.375 0 0 Z " fill="#AFAFB1" transform="translate(75.1875,74.625)"/>
<path d="M0 0 C4 1 4 1 7 3 C7.1875 6.125 7.1875 6.125 7 9 C6.67 9 6.34 9 6 9 C6 7.35 6 5.7 6 4 C4.68 4 3.36 4 2 4 C1.67 5.65 1.34 7.3 1 9 C0.67 9 0.34 9 0 9 C0 6.03 0 3.06 0 0 Z " fill="#7D6E6E" transform="translate(103,73)"/>
<path d="M0 0 C-1.41292095 4.8274799 -3.42974154 8.7162359 -6 13 C-6.66 12.01 -7.32 11.02 -8 10 C-4.60714286 0 -4.60714286 0 0 0 Z " fill="#BDBDBD" transform="translate(44,133)"/>
<path d="M0 0 C4.29 0 8.58 0 13 0 C12 4 12 4 10 6 C9.67 5.01 9.34 4.02 9 3 C6.89415562 2.19436362 6.89415562 2.19436362 4.4375 1.8125 C3.61121094 1.65394531 2.78492188 1.49539062 1.93359375 1.33203125 C1.29550781 1.22246094 0.65742187 1.11289063 0 1 C0 0.67 0 0.34 0 0 Z " fill="#897E7E" transform="translate(39,72)"/>
<path d="M0 0 C1.30710937 0.25716797 1.30710937 0.25716797 2.640625 0.51953125 C3.33671875 0.73996094 4.0328125 0.96039063 4.75 1.1875 C5.08 1.8475 5.41 2.5075 5.75 3.1875 C3.26979503 3.07408509 0.79155031 2.94735314 -1.6875 2.8125 C-2.39455078 2.7815625 -3.10160156 2.750625 -3.83007812 2.71875 C-5.64239188 2.61469371 -7.44817988 2.40830108 -9.25 2.1875 C-9.58 1.5275 -9.91 0.8675 -10.25 0.1875 C-6.51706662 -0.75916116 -3.76408135 -0.78324447 0 0 Z " fill="#E4E4E4" transform="translate(117.25,58.8125)"/>
<path d="M0 0 C0.99 0.33 1.98 0.66 3 1 C2.49339844 1.79664062 2.49339844 1.79664062 1.9765625 2.609375 C1.30753906 3.66898437 1.30753906 3.66898437 0.625 4.75 C0.18414062 5.44609375 -0.25671875 6.1421875 -0.7109375 6.859375 C-1.91880906 8.86517383 -2.98387737 10.89178296 -4 13 C-4.93423645 9.98968256 -5.04449911 9.13349732 -4 6 C-3.34 6 -2.68 6 -2 6 C-1.855625 5.195625 -1.71125 4.39125 -1.5625 3.5625 C-1 1 -1 1 0 0 Z " fill="#B3B3B3" transform="translate(56,109)"/>
<path d="M0 0 C0.66 0.33 1.32 0.66 2 1 C1.67 1.66 1.34 2.32 1 3 C0.34 3 -0.32 3 -1 3 C-2.00259507 6.00778521 -2.30314642 8.53820647 -2.5625 11.6875 C-2.64628906 12.68136719 -2.73007813 13.67523438 -2.81640625 14.69921875 C-2.87699219 15.45847656 -2.93757813 16.21773437 -3 17 C-3.33 17 -3.66 17 -4 17 C-4 12.05 -4 7.1 -4 2 C-2.68 1.34 -1.36 0.68 0 0 Z " fill="#8B7576" transform="translate(111,100)"/>
<path d="M0 0 C0.33 0 0.66 0 1 0 C1.33 5.28 1.66 10.56 2 16 C0.68 16.33 -0.64 16.66 -2 17 C-1.76990234 16.21882813 -1.76990234 16.21882813 -1.53515625 15.421875 C-0.86017489 12.36721485 -0.65588882 9.36984029 -0.4375 6.25 C-0.35371094 5.07953125 -0.26992187 3.9090625 -0.18359375 2.703125 C-0.12300781 1.81109375 -0.06242187 0.9190625 0 0 Z " fill="#B70606" transform="translate(102,73)"/>
<path d="M0 0 C0.99 0 1.98 0 3 0 C1.31326082 4.49797113 -0.81673892 8.72886302 -3 13 C-4.0494188 9.85174359 -3.98655124 9.01298497 -3.1875 5.9375 C-3.01605469 5.24527344 -2.84460937 4.55304687 -2.66796875 3.83984375 C-2 2 -2 2 0 0 Z " fill="#E1C5C6" transform="translate(66,44)"/>
<path d="M0 0 C1.47968324 0.14049518 2.95874516 0.28754826 4.4375 0.4375 C5.67306641 0.55931641 5.67306641 0.55931641 6.93359375 0.68359375 C9 1 9 1 10 2 C9.6875 5.5 9.6875 5.5 9 9 C8.01 9.495 8.01 9.495 7 10 C7.33 7.69 7.66 5.38 8 3 C7.236875 2.87625 6.47375 2.7525 5.6875 2.625 C3 2 3 2 0 0 Z " fill="#C4AFAE" transform="translate(39,73)"/>
<path d="M0 0 C0.66 0 1.32 0 2 0 C3.17571451 3.67410785 3.07366746 7.16929183 3 11 C2.34 9.68 1.68 8.36 1 7 C-0.32 7 -1.64 7 -3 7 C-1.125 2.25 -1.125 2.25 0 0 Z " fill="#A06361" transform="translate(90,38)"/>
<path d="M0 0 C1.58246707 -0.08153933 3.16616273 -0.13943557 4.75 -0.1875 C6.07257813 -0.23970703 6.07257813 -0.23970703 7.421875 -0.29296875 C10.5281544 0.06001755 11.83687649 0.7567608 14 3 C14.52799676 5.76142303 14.18598981 8.16365545 14 11 C13.67 11 13.34 11 13 11 C12.34 8.03 11.68 5.06 11 2 C7.37 1.67 3.74 1.34 0 1 C0 0.67 0 0.34 0 0 Z " fill="#C2B3B3" transform="translate(86,105)"/>
<path d="M0 0 C1.10272046 3.30816138 1.21537818 5.70111637 0 9 C-2.5625 10.3125 -2.5625 10.3125 -5 11 C-4.32902328 6.80639551 -2.1441606 3.59665648 0 0 Z " fill="#ED2224" transform="translate(69,44)"/>
<path d="M0 0 C0.66 1.32 1.32 2.64 2 4 C-0.97 6.475 -0.97 6.475 -4 9 C-4.33 8.01 -4.66 7.02 -5 6 C-4.01 5.67 -3.02 5.34 -2 5 C-2.33 4.01 -2.66 3.02 -3 2 C-2.01 1.34 -1.02 0.68 0 0 Z " fill="#CECFCE" transform="translate(68,86)"/>
<path d="M0 0 C0.33 0.66 0.66 1.32 1 2 C-0.38542316 5.62848922 -1.84351662 8.76527494 -4 12 C-4.66 12 -5.32 12 -6 12 C-5.36934243 8.78147169 -4.21979305 6.49198931 -2.4375 3.75 C-1.98246094 3.04359375 -1.52742188 2.3371875 -1.05859375 1.609375 C-0.53458984 0.81273437 -0.53458984 0.81273437 0 0 Z " fill="#CF1219" transform="translate(58,63)"/>
<path d="M0 0 C0.66 0 1.32 0 2 0 C2 1.32 2 2.64 2 4 C1.34 4 0.68 4 0 4 C0 5.65 0 7.3 0 9 C-0.99 9 -1.98 9 -3 9 C-2.5020163 5.26512223 -2.12508244 3.18762365 0 0 Z " fill="#E6E2E4" transform="translate(70,35)"/>
<path d="M0 0 C0.99 0 1.98 0 3 0 C4.85776765 3.13498292 5.20140476 5.37471432 5 9 C4.01 8.67 3.02 8.34 2 8 C1.26953125 6.15234375 1.26953125 6.15234375 0.8125 3.9375 C0.65394531 3.20402344 0.49539062 2.47054688 0.33203125 1.71484375 C0.22246094 1.14894531 0.11289063 0.58304688 0 0 Z " fill="#CDCBCB" transform="translate(96,13)"/>
<path d="M0 0 C0.33 0.66 0.66 1.32 1 2 C0.05988318 3.70116376 -0.94895617 5.36504293 -2 7 C-2.68096422 8.32608822 -3.35330586 9.65686601 -4 11 C-4.66 11 -5.32 11 -6 11 C-6.33 11.66 -6.66 12.32 -7 13 C-7 11.68 -7 10.36 -7 9 C-6.34 9 -5.68 9 -5 9 C-4.67 7.35 -4.34 5.7 -4 4 C-3.01 4 -2.02 4 -1 4 C-0.67 2.68 -0.34 1.36 0 0 Z " fill="#B4B4B4" transform="translate(75,121)"/>
<path d="M0 0 C0.33 1.32 0.66 2.64 1 4 C0.01 4.495 0.01 4.495 -1 5 C-0.67 3.35 -0.34 1.7 0 0 Z M-2 5 C-1.67 5.66 -1.34 6.32 -1 7 C-1.99 7.99 -2.98 8.98 -4 10 C-3.125 6.125 -3.125 6.125 -2 5 Z M-6 10 C-5.34 10.33 -4.68 10.66 -4 11 C-5.485 13.475 -5.485 13.475 -7 16 C-7.33 15.01 -7.66 14.02 -8 13 C-7.34 12.01 -6.68 11.02 -6 10 Z " fill="#EAEAEA" transform="translate(81,116)"/>
<path d="M0 0 C0.66 0.33 1.32 0.66 2 1 C2.4140625 3.06640625 2.4140625 3.06640625 2.625 5.5625 C2.69976562 6.38878906 2.77453125 7.21507812 2.8515625 8.06640625 C2.92503906 9.02353516 2.92503906 9.02353516 3 10 C1.68 9.67 0.36 9.34 -1 9 C-0.67 6.03 -0.34 3.06 0 0 Z " fill="#C8BEBE" transform="translate(91,52)"/>
<path d="M0 0 C0 3.11227195 -0.45627049 5.94152152 -1 9 C-2.32 9 -3.64 9 -5 9 C-5 5 -5 5 -2.5 2.25 C-1.675 1.5075 -0.85 0.765 0 0 Z " fill="#B7B5B6" transform="translate(85,53)"/>
<path d="M0 0 C0.66 0 1.32 0 2 0 C1.49701212 4.40114397 -0.08772731 6.71195019 -3 10 C-3.66 9.67 -4.32 9.34 -5 9 C-3.35 6.03 -1.7 3.06 0 0 Z " fill="#EF1E1F" transform="translate(75,34)"/>
<path d="M0 0 C0.66 0.33 1.32 0.66 2 1 C-0.97 5.95 -0.97 5.95 -4 11 C-4.33 9.68 -4.66 8.36 -5 7 C-4.34 7 -3.68 7 -3 7 C-2.87625 6.030625 -2.7525 5.06125 -2.625 4.0625 C-2.41875 3.051875 -2.2125 2.04125 -2 1 C-1.34 0.67 -0.68 0.34 0 0 Z " fill="#BBBBBB" transform="translate(49,122)"/>
<path d="M0 0 C0.33 0.99 0.66 1.98 1 3 C-0.32 3.33 -1.64 3.66 -3 4 C-2.67 2.68 -2.34 1.36 -2 0 C-5.3 0 -8.6 0 -12 0 C-12 -0.33 -12 -0.66 -12 -1 C-7.35656242 -2.10558038 -4.36228979 -2.028972 0 0 Z " fill="#B4B3B3" transform="translate(95,77)"/>
<path d="M0 0 C0.66 0.33 1.32 0.66 2 1 C0.68 3.31 -0.64 5.62 -2 8 C-2.66 7.67 -3.32 7.34 -4 7 C-3.67 5.02 -3.34 3.04 -3 1 C-2.01 0.67 -1.02 0.34 0 0 Z " fill="#0E0508" transform="translate(56,63)"/>
<path d="M0 0 C0.65234375 1.765625 0.65234375 1.765625 1 4 C0.00390625 5.921875 0.00390625 5.921875 -1.4375 7.75 C-2.14712891 8.67039063 -2.14712891 8.67039063 -2.87109375 9.609375 C-3.24363281 10.06828125 -3.61617188 10.5271875 -4 11 C-5 8 -5 8 -3.5625 4.8125 C-3.046875 3.884375 -2.53125 2.95625 -2 2 C-1.34 2 -0.68 2 0 2 C0 1.34 0 0.68 0 0 Z " fill="#E9E9E9" transform="translate(72,132)"/>
<path d="M0 0 C0.6875 1.6875 0.6875 1.6875 1 4 C-0.25 6.6875 -0.25 6.6875 -2 9 C-2.99 9.33 -3.98 9.66 -5 10 C-3.66511872 6.40608886 -2.03977277 3.24509304 0 0 Z " fill="#A17C78" transform="translate(66,80)"/>
<path d="M0 0 C0.93423645 3.01031744 1.04449911 3.86650268 0 7 C-3.0625 8.1875 -3.0625 8.1875 -6 9 C-5.67 8.01 -5.34 7.02 -5 6 C-4.34 6 -3.68 6 -3 6 C-2.67 5.01 -2.34 4.02 -2 3 C-1.34 3 -0.68 3 0 3 C0 2.01 0 1.02 0 0 Z " fill="#E0E1E3" transform="translate(62,50)"/>
<path d="M0 0 C2.125 0.375 2.125 0.375 4 1 C3.01 1 2.02 1 1 1 C0.5978125 2.2065625 0.5978125 2.2065625 0.1875 3.4375 C-0.4003125 4.7059375 -0.4003125 4.7059375 -1 6 C-1.99 6.33 -2.98 6.66 -4 7 C-2.92598892 4.08482708 -2.22189824 2.22189824 0 0 Z " fill="#8A726F" transform="translate(71,73)"/>
<path d="M0 0 C0.66 0 1.32 0 2 0 C1.29445932 3.66881155 -0.27735506 6.70450534 -2 10 C-2.33 8.68 -2.66 7.36 -3 6 C-2.34 6 -1.68 6 -1 6 C-1.0309375 4.7934375 -1.0309375 4.7934375 -1.0625 3.5625 C-1 1 -1 1 0 0 Z " fill="#E1C0C2" transform="translate(73,33)"/>
<path d="M0 0 C0.66 0 1.32 0 2 0 C0.6302836 3.99500618 -1.25722422 6.80009492 -4 10 C-3.52651586 5.8333396 -2.95303159 3.07115285 0 0 Z " fill="#E0C4C0" transform="translate(85,14)"/>
<path d="M0 0 C2 2 2 2 2.875 4 C4.2363704 6.42021404 5.46546555 6.98618622 8 8 C1.125 7.125 1.125 7.125 0 6 C-0.04080783 4.00041636 -0.04254356 1.99954746 0 0 Z " fill="#D5CECC" transform="translate(100,127)"/>
<path d="M0 0 C0.99 0 1.98 0 3 0 C3 1.32 3 2.64 3 4 C1.35 4.66 -0.3 5.32 -2 6 C-2 5.01 -2 4.02 -2 3 C-1.34 3 -0.68 3 0 3 C0 2.01 0 1.02 0 0 Z " fill="#EFEDEC" transform="translate(72,29)"/>
<path d="M0 0 C3.63 0.33 7.26 0.66 11 1 C11.33 1.99 11.66 2.98 12 4 C11.01 4 10.02 4 9 4 C9 3.34 9 2.68 9 2 C6.03 2 3.06 2 0 2 C0 1.34 0 0.68 0 0 Z " fill="#E6E5E6" transform="translate(87,9)"/>
<path d="M0 0 C0.33 0 0.66 0 1 0 C1 2.31 1 4.62 1 7 C0.01 7 -0.98 7 -2 7 C-2.125 4.625 -2.125 4.625 -2 2 C-1.34 1.34 -0.68 0.68 0 0 Z " fill="#ECEAEB" transform="translate(89,52)"/>
<path d="M0 0 C0.33 0 0.66 0 1 0 C0.67 2.64 0.34 5.28 0 8 C-0.99 8 -1.98 8 -3 8 C-1.125 2.25 -1.125 2.25 0 0 Z " fill="#6D6D6D" transform="translate(90,83)"/>
<path d="M0 0 C1.32 0 2.64 0 4 0 C3.34 1.98 2.68 3.96 2 6 C1.34 6 0.68 6 0 6 C0 4.02 0 2.04 0 0 Z " fill="#D10205" transform="translate(98,84)"/>
<path d="M0 0 C2.31 1.98 4.62 3.96 7 6 C6.01 6.33 5.02 6.66 4 7 C0 2.25 0 2.25 0 0 Z " fill="#A8A8A8" transform="translate(32,66)"/>
</svg>
